<svg width="48" height="35" viewBox="0 0 48 35" fill="none" xmlns="http://www.w3.org/2000/svg">
<path d="M45.72 2.28003H48V29.715H45.72V2.28003Z" fill="#6FFF00"/>
<path d="M43.4399 29.715H45.7199V31.995H43.4399V29.715Z" fill="#6FFF00"/>
<path d="M41.145 25.14H43.44V27.42H41.145V25.14Z" fill="#6FFF00"/>
<path d="M41.145 11.43H43.44V18.285H41.145V11.43Z" fill="#6FFF00"/>
<path d="M41.145 4.57501H43.44V6.85501H41.145V4.57501Z" fill="#6FFF00"/>
<path d="M41.145 29.715H38.865V31.995H32.0099V29.715H16.005V31.995H9.14995V29.715H6.86995V31.995H4.57495V34.29H43.4399V31.995H41.145V29.715Z" fill="#6FFF00"/>
<path d="M38.865 18.285H41.145V20.565H38.865V18.285Z" fill="#6FFF00"/>
<path d="M38.865 9.13501H41.145V11.43H38.865V9.13501Z" fill="#6FFF00"/>
<path d="M36.5701 27.42H38.8651V29.715H36.5701V27.42Z" fill="#6FFF00"/>
<path d="M34.2899 18.285H32.0099V11.43H34.2899V9.13498H38.8649V6.85498H9.1499V9.13498H13.7249V11.43H16.0049V18.285H13.7249V20.565H9.1499V22.86H38.8649V20.565H34.2899V18.285ZM29.7149 15.99H18.2849V9.13498H29.7149V15.99Z" fill="#6FFF00"/>
<path d="M34.29 11.43H38.865V18.285H34.29V11.43Z" fill="#6FFF00"/>
<path d="M25.155 11.43H27.435V13.71H25.155V11.43Z" fill="#6FFF00"/>
<path d="M20.5801 11.43H22.8601V13.71H20.5801V11.43Z" fill="#6FFF00"/>
<path d="M11.4299 25.14H36.5699V27.42H11.4299V25.14Z" fill="#6FFF00"/>
<path d="M9.1499 27.42H11.4299V29.715H9.1499V27.42Z" fill="#6FFF00"/>
<path d="M9.1499 11.43H13.7249V18.285H9.1499V11.43Z" fill="#6FFF00"/>
<path d="M6.87012 18.285H9.15012V20.565H6.87012V18.285Z" fill="#6FFF00"/>
<path d="M6.87012 9.13501H9.15012V11.43H6.87012V9.13501Z" fill="#6FFF00"/>
<path d="M4.57495 25.14H6.86995V27.42H4.57495V25.14Z" fill="#6FFF00"/>
<path d="M4.57495 11.43H6.86995V18.285H4.57495V11.43Z" fill="#6FFF00"/>
<path d="M4.57495 4.57501H6.86995V6.85501H4.57495V4.57501Z" fill="#6FFF00"/>
<path d="M2.29492 0H45.7199V2.28H2.29492V0Z" fill="#6FFF00"/>
<path d="M2.29492 29.715H4.57492V31.995H2.29492V29.715Z" fill="#6FFF00"/>
<path d="M0 2.28003H2.295V29.715H0V2.28003Z" fill="#6FFF00"/>
</svg>
