<svg width="64" height="55" viewBox="0 0 64 55" fill="none" xmlns="http://www.w3.org/2000/svg">
<path d="M44.8084 25.5958V28.7874H38.4042V32H19.2126V35.1916H28.8084V38.3832H32V41.5958H35.2126V44.7874H48V47.979H51.2126V51.1916H54.4042V54.3832H57.5958V41.5958H60.8084V38.3832H64V25.5958H60.8084V22.3832H57.5958V19.1916H51.2126V9.59583H48V25.5958H44.8084Z" fill="#6FFF00"/>
<path d="M44.8083 6.38318H47.9999V9.59578H44.8083V6.38318Z" fill="#6FFF00"/>
<path d="M35.2126 16H41.5958V22.3832H35.2126V16Z" fill="#6FFF00"/>
<path d="M38.4043 3.19165H44.8085V6.38325H38.4043V3.19165Z" fill="#6FFF00"/>
<path d="M22.4041 16H28.8083V22.3832H22.4041V16Z" fill="#6FFF00"/>
<path d="M16 35.1917H19.2126V38.3833H16V35.1917Z" fill="#6FFF00"/>
<path d="M12.8083 0H38.4041V3.1916H12.8083V0Z" fill="#6FFF00"/>
<path d="M12.8085 32H9.61694V44.7874H12.8085V41.5958H16.0001V38.3832H12.8085V32Z" fill="#6FFF00"/>
<path d="M9.61694 16H16.0001V22.3832H9.61694V16Z" fill="#6FFF00"/>
<path d="M6.40405 3.19165H12.8083V6.38325H6.40405V3.19165Z" fill="#6FFF00"/>
<path d="M6.40405 28.7874H9.61665V32H6.40405V28.7874Z" fill="#6FFF00"/>
<path d="M3.2124 25.5957H6.404V28.7873H3.2124V25.5957Z" fill="#6FFF00"/>
<path d="M3.2124 6.38318H6.404V9.59578H3.2124V6.38318Z" fill="#6FFF00"/>
<path d="M0 9.59583H3.2126V25.5958H0V9.59583Z" fill="#6FFF00"/>
</svg>
