<svg width="256" height="256" viewBox="0 0 256 256" fill="none" xmlns="http://www.w3.org/2000/svg">
<path d="M243.76 24.4H231.6V12.24H219.44V0H48.7202V97.6H12.1602V109.76H73.1202V97.6H60.9602V12.24H195.04V60.96H243.76V182.88H231.6V207.28H243.76V243.84H256V36.64H243.76V24.4Z" fill="#6FFF00"/>
<path d="M60.9597 243.84H243.76V256H60.9597V243.84Z" fill="#6FFF00"/>
<path d="M219.44 158.48H231.6V182.88H219.44V158.48Z" fill="#6FFF00"/>
<path d="M207.2 134.16H219.44V158.48H207.2V134.16Z" fill="#6FFF00"/>
<path d="M85.3594 121.92H207.199V134.16H85.3594V121.92Z" fill="#6FFF00"/>
<path d="M158.48 60.96H170.64V73.2H158.48V60.96Z" fill="#6FFF00"/>
<path d="M121.921 85.36H158.481V97.6H121.921V85.36Z" fill="#6FFF00"/>
<path d="M109.68 60.96H121.92V73.2H109.68V60.96Z" fill="#6FFF00"/>
<path d="M73.1199 109.76H85.3599V121.92H73.1199V109.76Z" fill="#6FFF00"/>
<path d="M48.72 219.44H60.96V243.84H48.72V219.44Z" fill="#6FFF00"/>
<path d="M36.5598 195.12H48.7198V219.44H36.5598V195.12Z" fill="#6FFF00"/>
<path d="M24.3997 170.72H36.5597V195.12H24.3997V170.72Z" fill="#6FFF00"/>
<path d="M12.1602 146.32H24.4002V170.72H12.1602V146.32Z" fill="#6FFF00"/>
<path d="M0 109.76H12.16V146.32H0V109.76Z" fill="#6FFF00"/>
</svg>
