<svg width="208" height="256" viewBox="0 0 208 256" fill="none" xmlns="http://www.w3.org/2000/svg">
<path d="M195.04 24.4H182.88V12.24H170.72V0H6.10352e-05V97.6L0 109.76H60.96V97.6H12.2401V12.24H146.32V60.96H195.04V158.5V243.84H207.28V36.64H195.04V24.4Z" fill="#6FFF00"/>
<path d="M12.2393 243.84H195.039V256H12.2393V243.84Z" fill="#6FFF00"/>
<path d="M73.5195 121.92H195.36V134.16H73.5195V121.92Z" fill="#6FFF00"/>
<path d="M109.76 60.96H121.92V73.2H109.76V60.96Z" fill="#6FFF00"/>
<path d="M73.2002 85.36H109.76V97.6H73.2002V85.36Z" fill="#6FFF00"/>
<path d="M60.9595 60.96H73.1995V73.2H60.9595V60.96Z" fill="#6FFF00"/>
<path d="M61.2798 109.76H73.5198V121.92H61.2798V109.76Z" fill="#6FFF00"/>
<path d="M0 98H12V244H0V98Z" fill="#6FFF00"/>
</svg>
