<svg width="48" height="37" viewBox="0 0 48 37" fill="none" xmlns="http://www.w3.org/2000/svg">
<path d="M45.72 2.29498H48V34.29H45.72V2.29498Z" fill="#6FFF00"/>
<path d="M2.28003 34.29H45.72V36.585H2.28003V34.29Z" fill="#6FFF00"/>
<path d="M43.4251 0H38.8651V2.295H36.5701V4.575H34.2901V6.87H31.9951V9.15H29.7151V11.43H27.4351V13.725H25.1401V16.005H22.8601V20.58H27.4351V18.285H29.7151V16.005H31.9951V13.725H34.2901V11.43H36.5701V9.15H38.8651V6.87H41.1451V4.575H43.4251V0Z" fill="#6FFF00"/>
<path d="M20.5649 20.58H22.8599V22.86H20.5649V20.58Z" fill="#6FFF00"/>
<path d="M18.2849 11.43H20.5649V13.725H18.2849V11.43Z" fill="#6FFF00"/>
<path d="M13.71 22.86H20.565V25.155H13.71V22.86Z" fill="#6FFF00"/>
<path d="M16.0049 13.725H18.2849V16.005H16.0049V13.725Z" fill="#6FFF00"/>
<path d="M13.71 9.15002H18.285V11.43H13.71V9.15002Z" fill="#6FFF00"/>
<path d="M13.71 16.005H16.005V18.285H13.71V16.005Z" fill="#6FFF00"/>
<path d="M11.4299 18.285H13.7099V22.86H11.4299V18.285Z" fill="#6FFF00"/>
<path d="M11.4299 11.43H13.7099V13.725H11.4299V11.43Z" fill="#6FFF00"/>
<path d="M9.1499 13.725H11.4299V16.005H9.1499V13.725Z" fill="#6FFF00"/>
<path d="M6.85495 6.87001H29.715V4.57501H4.57495V32.01H43.4249V9.15001H41.145V29.715H6.85495V6.87001Z" fill="#6FFF00"/>
<path d="M2.28003 0H34.29V2.295H2.28003V0Z" fill="#6FFF00"/>
<path d="M0 2.29498H2.28V34.29H0V2.29498Z" fill="#6FFF00"/>
</svg>
