<svg width="52" height="64" viewBox="0 0 52 64" fill="none" xmlns="http://www.w3.org/2000/svg">
<path d="M42.6599 36.5799V39.6199H48.7599V48.7599H51.7999V27.4199H48.7599V36.5799H42.6599Z" fill="#6FFF00"/>
<path d="M45.7199 54.8599H15.2399V51.8199H12.1799V54.8599H9.13989V63.9999H51.7999V54.8599H48.7599V48.7599H45.7199V54.8599ZM45.7199 60.9599H39.6199V57.8999H45.7199V60.9599Z" fill="#6FFF00"/>
<path d="M39.6201 36.58H42.6601V27.42H48.7601V24.38H39.6201V36.58Z" fill="#6FFF00"/>
<path d="M39.6201 3.04004H42.6601V12.2H39.6201V3.04004Z" fill="#6FFF00"/>
<path d="M36.5601 12.2001H39.6201V18.2801H36.5601V12.2001Z" fill="#6FFF00"/>
<path d="M33.52 36.5801H39.62V39.6201H33.52V36.5801Z" fill="#6FFF00"/>
<path d="M33.52 24.3799H39.62V21.3399H36.56V18.2799H33.52V24.3799Z" fill="#6FFF00"/>
<path d="M30.48 0H39.62V3.04H30.48V0Z" fill="#6FFF00"/>
<path d="M30.4799 39.62V36.58H33.5199V24.38H30.4799V33.52H27.4199V39.62H30.4799Z" fill="#6FFF00"/>
<path d="M27.4199 3.04004H30.4799V12.2H27.4199V3.04004Z" fill="#6FFF00"/>
<path d="M24.3799 30.48H27.4199V33.52H24.3799V30.48Z" fill="#6FFF00"/>
<path d="M24.3799 12.2001H27.4199V18.2801H24.3799V12.2001Z" fill="#6FFF00"/>
<path d="M18.28 39.62H27.42V42.66H18.28V39.62Z" fill="#6FFF00"/>
<path d="M18.28 27.4199H24.38V30.4799H18.28V27.4199Z" fill="#6FFF00"/>
<path d="M21.34 21.3399V24.3799H24.38V18.2799H18.28V21.3399H21.34Z" fill="#6FFF00"/>
<path d="M15.24 36.5801H18.28V39.6201H15.24V36.5801Z" fill="#6FFF00"/>
<path d="M15.24 12.2001H18.28V18.2801H15.24V12.2001Z" fill="#6FFF00"/>
<path d="M9.13989 24.38H18.2799V27.42H9.13989V24.38Z" fill="#6FFF00"/>
<path d="M12.1799 3.04004H15.2399V12.2H12.1799V3.04004Z" fill="#6FFF00"/>
<path d="M9.13989 48.7599H12.1799V51.8199H9.13989V48.7599Z" fill="#6FFF00"/>
<path d="M6.1001 42.66H9.1401V48.76H6.1001V42.66Z" fill="#6FFF00"/>
<path d="M6.1001 27.4199H9.1401V30.4799H6.1001V27.4199Z" fill="#6FFF00"/>
<path d="M6.1001 18.2799H9.1401V24.3799H6.1001V18.2799Z" fill="#6FFF00"/>
<path d="M3.04004 0H12.18V3.04H3.04004V0Z" fill="#6FFF00"/>
<path d="M3.04004 30.48H6.10004V42.66H3.04004V30.48Z" fill="#6FFF00"/>
<path d="M3.04004 12.2001H6.10004V18.2801H3.04004V12.2001Z" fill="#6FFF00"/>
<path d="M0 3.04004H3.04V12.2H0V3.04004Z" fill="#6FFF00"/>
</svg>
