<svg width="48" height="48" viewBox="0 0 48 48" fill="none" xmlns="http://www.w3.org/2000/svg">
<path d="M45.72 22.86H48V38.865H45.72V22.86Z" fill="#6FFF00"/>
<path d="M43.425 38.865H45.7201V41.145H43.425V38.865Z" fill="#6FFF00"/>
<path d="M43.425 18.285H45.7201V22.86H43.425V18.285Z" fill="#6FFF00"/>
<path d="M41.145 41.145H43.425V43.44H41.145V41.145Z" fill="#6FFF00"/>
<path d="M41.145 13.725H43.425V18.285H41.145V13.725Z" fill="#6FFF00"/>
<path d="M38.865 43.44H41.145V45.72H38.865V43.44Z" fill="#6FFF00"/>
<path d="M38.865 11.43H41.145V13.725H38.865V11.43Z" fill="#6FFF00"/>
<path d="M36.5701 4.57501H38.8651V11.43H36.5701V4.57501Z" fill="#6FFF00"/>
<path d="M25.1399 45.72V43.44H29.7149V41.145H22.8599V43.44H11.4299V45.72H22.8599V48H38.8649V45.72H25.1399Z" fill="#6FFF00"/>
<path d="M34.29 2.29498H36.57V4.57498H34.29V2.29498Z" fill="#6FFF00"/>
<path d="M29.7151 22.86H34.2901V25.14H29.7151V22.86Z" fill="#6FFF00"/>
<path d="M29.7151 38.865H32.0101V41.145H29.7151V38.865Z" fill="#6FFF00"/>
<path d="M27.4351 0H34.2901V2.295H27.4351V0Z" fill="#6FFF00"/>
<path d="M27.4351 36.57H29.7151V38.865H27.4351V36.57Z" fill="#6FFF00"/>
<path d="M27.4351 25.14H29.7151V27.435H27.4351V25.14Z" fill="#6FFF00"/>
<path d="M27.4351 4.57501H32.0101V9.15001H27.4351V4.57501Z" fill="#6FFF00"/>
<path d="M25.1399 27.435H27.4349V36.57H25.1399V27.435Z" fill="#6FFF00"/>
<path d="M25.1399 2.29498H27.4349V4.57498H25.1399V2.29498Z" fill="#6FFF00"/>
<path d="M22.8601 4.57501H25.1401V9.15001H22.8601V4.57501Z" fill="#6FFF00"/>
<path d="M20.5801 38.865H22.8601V41.145H20.5801V38.865Z" fill="#6FFF00"/>
<path d="M18.2849 32.01H20.5799V38.865H18.2849V32.01Z" fill="#6FFF00"/>
<path d="M18.2849 9.15002H22.8599V11.43H18.2849V9.15002Z" fill="#6FFF00"/>
<path d="M16.0049 29.715H18.2849V32.01H16.0049V29.715Z" fill="#6FFF00"/>
<path d="M16.0049 13.725H18.2849V16.005H16.0049V13.725Z" fill="#6FFF00"/>
<path d="M16.0049 4.57501H18.2849V9.15001H16.0049V4.57501Z" fill="#6FFF00"/>
<path d="M13.7251 2.29498H16.0051V4.57498H13.7251V2.29498Z" fill="#6FFF00"/>
<path d="M9.1499 16.005H16.0049V18.285H9.1499V16.005Z" fill="#6FFF00"/>
<path d="M9.1499 41.145H11.4299V43.44H9.1499V41.145Z" fill="#6FFF00"/>
<path d="M6.85498 0H13.725V2.295H6.85498V0Z" fill="#6FFF00"/>
<path d="M2.295 45.72V43.44H0V48H11.43V45.72H2.295Z" fill="#6FFF00"/>
<path d="M4.57495 27.435H16.005V29.715H4.57495V27.435Z" fill="#6FFF00"/>
<path d="M6.85498 4.57501H11.43V9.15001H6.85498V4.57501Z" fill="#6FFF00"/>
<path d="M6.85492 41.145H9.14992V38.865H4.57492V41.145H2.29492V43.44H6.85492V41.145Z" fill="#6FFF00"/>
<path d="M4.57495 11.43H6.85495V16.005H4.57495V11.43Z" fill="#6FFF00"/>
<path d="M4.57495 2.29498H6.85495V4.57498H4.57495V2.29498Z" fill="#6FFF00"/>
<path d="M2.29492 36.57H4.57492V38.865H2.29492V36.57Z" fill="#6FFF00"/>
<path d="M2.29492 16.005H4.57492V20.58H2.29492V16.005Z" fill="#6FFF00"/>
<path d="M2.29492 4.57501H4.57492V11.43H2.29492V4.57501Z" fill="#6FFF00"/>
<path d="M4.575 32.01V29.715H2.295V20.58H0V36.57H2.295V32.01H4.575Z" fill="#6FFF00"/>
</svg>
