<svg width="36" height="36" viewBox="0 0 36 36" fill="none" xmlns="http://www.w3.org/2000/svg">
<path d="M34.2788 3.43121H36V32.5687H34.2788V3.43121Z" fill="#6FFF00"/>
<path d="M32.5688 32.5688H34.2788V34.29H32.5688V32.5688Z" fill="#6FFF00"/>
<path d="M32.5688 1.71002H34.2788V3.43127H32.5688V1.71002Z" fill="#6FFF00"/>
<path d="M3.42 34.29H32.5687V36H3.42V34.29Z" fill="#6FFF00"/>
<path d="M30.8475 5.14121H29.1375V3.43121H6.85125V5.14121H5.14125V6.85121H3.42V29.1375H5.14125V30.8587H6.85125V32.5687H29.1375V30.8587H30.8475V29.1375H32.5687V6.85121H30.8475V5.14121ZM29.1375 27.4275H27.4275V29.1375H8.56125V27.4275H6.85125V8.57246H8.56125V6.85121H27.4275V8.57246H29.1375V27.4275Z" fill="#6FFF00"/>
<path d="M23.9963 8.57251H27.4275V12.0038H23.9963V8.57251Z" fill="#6FFF00"/>
<path d="M23.9962 13.7138H22.2863V12.0038H13.7137V13.7138H11.9925V15.4238H10.2825V23.9963H11.9925V25.7175H13.7137V27.4275H22.2863V25.7175H23.9962V23.9963H25.7063V15.4238H23.9962V13.7138ZM22.2863 22.2863H20.565V23.9963H15.4237V22.2863H13.7137V17.145H15.4237V15.4238H20.565V17.145H22.2863V22.2863Z" fill="#6FFF00"/>
<path d="M3.42 0H32.5687V1.71H3.42V0Z" fill="#6FFF00"/>
<path d="M1.71 32.5688H3.42V34.29H1.71V32.5688Z" fill="#6FFF00"/>
<path d="M1.71 1.71002H3.42V3.43127H1.71V1.71002Z" fill="#6FFF00"/>
<path d="M0 3.43121H1.71V32.5687H0V3.43121Z" fill="#6FFF00"/>
</svg>
