<svg width="241" height="83" viewBox="0 0 241 83" fill="none" xmlns="http://www.w3.org/2000/svg">
<path d="M0 68.4718V58.6901H19.8887V9.78169H0V0H59.666V9.78169H39.7773V58.6901H59.666V68.4718H0Z" fill="#A006F5"/>
<path d="M69.6103 68.4718V0H119.332V9.78169H129.276V19.5634H139.221V48.9084H129.276V58.6901H119.332V68.4718H69.6103ZM89.4989 58.6901H109.388V48.9084H119.332V19.5634H109.388V9.78169H89.4989V58.6901Z" fill="#A006F5"/>
<path d="M151.508 70.5411C156.434 71.1756 161.33 71.8101 166.197 72.4445C172.003 73.1944 176.928 73.4828 180.974 73.3097C178.863 67.2533 175.843 61.2546 171.915 55.3135C169.745 51.9681 167.81 47.8151 166.109 42.8546C161.594 46.0847 157.079 49.286 152.564 52.4584C146.289 56.496 141.364 58.5148 137.787 58.5148C133.916 58.5148 131.102 56.5537 129.343 52.6314C127.583 48.7092 126.704 42.5662 126.704 34.2026C126.704 29.7612 126.938 24.5989 127.407 18.7155C132.568 23.676 135.676 28.8095 136.731 34.1161C137.024 37.0578 137.64 41.8452 138.578 48.4784C142.742 47.3825 147.081 45.4214 151.596 42.5951C156.58 39.538 159.982 36.4233 161.799 33.2509C162.093 32.6741 162.562 31.78 163.207 30.5688C163.852 29.2998 164.526 28.2039 165.23 27.281C166.461 25.7236 168.25 23.849 170.595 21.6572C171.533 26.0409 172.853 31.3763 174.553 37.6634C175.843 41.2396 178.072 45.7386 181.238 51.1606C185.108 57.9091 187.542 62.3217 188.539 64.3982C190.708 68.8972 191.793 72.5599 191.793 75.3862C191.793 80.4621 187.923 83 180.183 83C177.485 83 173.644 82.6828 168.66 82.0483C157.577 80.664 144.941 79.9718 130.75 79.9718C126.821 79.9718 122.834 80.0295 118.788 80.1448L125.56 75.2132C125.854 74.9825 126.352 74.2326 127.056 72.9637C127.642 71.8677 128.639 71.0025 130.046 70.368C133.623 68.58 137.2 66.7919 140.777 65.0038C145.058 62.9273 148.84 61.5141 152.124 60.7643C154.704 60.1875 160.333 59.8991 169.012 59.8991C161.272 65.0903 155.437 68.6376 151.508 70.5411Z" fill="#6FFF00"/>
<path d="M199.308 31.78C203.881 30.4534 208.631 29.7901 213.557 29.7901C216.782 29.7901 219.685 30.1073 222.265 30.7418C222.265 29.8189 222.353 28.3481 222.529 26.3293C222.763 22.2917 223.174 19.3211 223.76 17.4177C223.819 16.8986 223.936 15.0528 224.112 11.8804C213.029 15.4566 204.292 17.7349 197.9 18.7155C197.314 18.7732 196.434 18.9462 195.261 19.2346C197.255 23.0415 198.604 27.2233 199.308 31.78ZM232.644 55.6596C231.999 55.0251 231.09 54.0734 229.917 52.8044C228.862 51.7662 228.07 51.2471 227.542 51.2471C227.073 51.2471 226.223 51.6508 224.992 52.4584C223.819 53.2659 222.646 54.0734 221.473 54.8809C220.066 55.8038 218.776 56.4671 217.603 56.8709C212.619 58.6013 208.045 59.4665 203.881 59.4665C197.314 59.4665 192.124 57.3612 188.313 53.1505C185.85 50.3819 184.618 47.6709 184.618 45.0176C184.618 39.9418 188.635 35.8177 196.669 32.6452L197.109 32.4722L192.271 31.0879C189.749 30.338 187.873 29.1844 186.641 27.6271C186.407 27.3387 185.351 25.4641 183.475 22.0033C182.185 19.5807 181.54 17.6484 181.54 16.2064C181.54 14.4183 182.332 12.8898 183.915 11.6208H185.674C189.603 10.2942 195.056 9.02524 202.034 7.81395C210.126 6.42963 215.609 5.36255 218.483 4.61271C219.304 4.38199 220.857 3.66098 223.144 2.4497C225.021 1.46914 226.692 0.978861 228.158 0.978861C229.683 0.978861 231.031 1.4403 232.204 2.36318C232.204 2.36318 232.732 2.53622 233.787 2.8823C233.787 8.01583 233.201 14.5625 232.028 22.5224C231.5 26.0986 231.237 28.8672 231.237 30.8283C231.237 34.9813 232.439 39.0189 234.843 42.9411C235.722 44.2678 236.573 45.5656 237.394 46.8346C238.449 48.5073 239.124 49.8916 239.417 50.9875C239.71 51.622 240.003 52.6314 240.296 54.0157C240.296 54.3041 240.531 56.4095 241 60.3317C236.719 58.5436 233.934 56.9863 232.644 55.6596ZM209.863 37.4904C205.934 38.0095 202.269 39.2496 198.868 41.2107C196.229 42.7104 194.91 44.0948 194.91 45.3637C194.91 46.9788 196.815 48.1612 200.627 48.911C203.09 49.4302 205.758 49.6897 208.631 49.6897C212.677 49.6897 215.873 49.1706 218.219 48.1324C220.975 46.9788 222.206 45.2195 221.913 42.8546C221.737 41.4703 220.682 40.2302 218.746 39.1343C216.811 37.9807 214.524 37.4039 211.886 37.4039C211.182 37.4039 210.508 37.4327 209.863 37.4904Z" fill="#6FFF00"/>
</svg>
