<svg width="36" height="36" viewBox="0 0 36 36" fill="none" xmlns="http://www.w3.org/2000/svg">
<path d="M18.855 23.9925L18.855 22.2825L20.565 22.2825L20.565 20.5725L22.2862 20.5725L22.2862 18.8513L23.9962 18.8513L23.9962 17.1412L25.7175 17.1413L25.7175 15.4313L27.4275 15.4313L27.4275 13.71L29.1375 13.71L29.1375 12L8.5725 12L8.5725 13.71L10.2825 13.71L10.2825 15.4312L11.9925 15.4313L11.9925 17.1412L13.7137 17.1412L13.7137 18.8513L15.4237 18.8513L15.4237 25.7138L17.145 25.7138L17.145 23.9925L18.855 23.9925Z" fill="#6FFF00"/>
<path d="M22.2863 34.2787L22.2863 35.9999L13.7138 35.9999L13.7138 34.2787L22.2863 34.2787Z" fill="#6FFF00"/>
<path d="M13.7138 32.5687L13.7138 34.2787L10.2825 34.2787L10.2825 32.5687L13.7138 32.5687Z" fill="#6FFF00"/>
<path d="M25.7175 32.5687L25.7175 34.2787L22.2862 34.2787L22.2862 32.5687L25.7175 32.5687Z" fill="#6FFF00"/>
<path d="M10.2825 30.8587L10.2825 32.5687L6.85125 32.5687L6.85125 30.8587L10.2825 30.8587Z" fill="#6FFF00"/>
<path d="M29.1375 30.8587L29.1375 32.5687L25.7175 32.5687L25.7175 30.8587L29.1375 30.8587Z" fill="#6FFF00"/>
<path d="M6.85126 29.1375L6.85126 30.8588L5.14126 30.8588L5.14126 29.1375L6.85126 29.1375Z" fill="#6FFF00"/>
<path d="M30.8587 29.1375L30.8587 30.8588L29.1375 30.8588L29.1375 29.1375L30.8587 29.1375Z" fill="#6FFF00"/>
<path d="M5.14125 25.7062L5.14125 29.1375L3.43125 29.1375L3.43125 25.7062L5.14125 25.7062Z" fill="#6FFF00"/>
<path d="M32.5688 25.7062L32.5688 29.1375L30.8588 29.1375L30.8588 25.7062L32.5688 25.7062Z" fill="#6FFF00"/>
<path d="M3.43125 22.2863L3.43125 25.7063L1.71 25.7063L1.71 22.2863L3.43125 22.2863Z" fill="#6FFF00"/>
<path d="M34.2787 22.2862L34.2787 25.7062L32.5687 25.7062L32.5687 22.2862L34.2787 22.2862Z" fill="#6FFF00"/>
<path d="M1.70999 13.7138L1.70999 22.2863L-8.41181e-06 22.2863L-8.03709e-06 13.7138L1.70999 13.7138Z" fill="#6FFF00"/>
<path d="M36 13.7137L36 22.2862L34.2787 22.2862L34.2787 13.7137L36 13.7137Z" fill="#6FFF00"/>
<path d="M3.43124 10.2825L3.43124 13.7137L1.70998 13.7137L1.70998 10.2825L3.43124 10.2825Z" fill="#6FFF00"/>
<path d="M34.2787 10.2825L34.2787 13.7137L32.5687 13.7137L32.5687 10.2825L34.2787 10.2825Z" fill="#6FFF00"/>
<path d="M5.14124 6.85132L5.14124 10.2826L3.43124 10.2826L3.43124 6.85132L5.14124 6.85132Z" fill="#6FFF00"/>
<path d="M32.5688 6.85132L32.5688 10.2826L30.8588 10.2826L30.8588 6.85132L32.5688 6.85132Z" fill="#6FFF00"/>
<path d="M6.85126 5.1413L6.85126 6.8513L5.14126 6.8513L5.14126 5.1413L6.85126 5.1413Z" fill="#6FFF00"/>
<path d="M30.8587 5.1413L30.8587 6.8513L29.1375 6.8513L29.1375 5.1413L30.8587 5.1413Z" fill="#6FFF00"/>
<path d="M10.2825 3.41998L10.2825 5.14123L6.85124 5.14123L6.85124 3.41998L10.2825 3.41998Z" fill="#6FFF00"/>
<path d="M29.1375 3.41998L29.1375 5.14123L25.7175 5.14123L25.7175 3.41998L29.1375 3.41998Z" fill="#6FFF00"/>
<path d="M13.7137 1.70996L13.7137 3.41996L10.2825 3.41996L10.2825 1.70996L13.7137 1.70996Z" fill="#6FFF00"/>
<path d="M25.7175 1.70996L25.7175 3.41996L22.2862 3.41996L22.2862 1.70996L25.7175 1.70996Z" fill="#6FFF00"/>
<path d="M22.2862 0L22.2862 1.71L13.7137 1.71L13.7137 -3.74716e-07L22.2862 0Z" fill="#6FFF00"/>
</svg>
