<svg width="36" height="36" viewBox="0 0 36 36" fill="none" xmlns="http://www.w3.org/2000/svg">
<path d="M34.2788 13.7137H36V22.2862H34.2788V13.7137Z" fill="#6FFF00"/>
<path d="M32.5688 22.2863H34.2788V25.7176H32.5688V22.2863Z" fill="#6FFF00"/>
<path d="M32.5688 10.2825H34.2788V13.7137H32.5688V10.2825Z" fill="#6FFF00"/>
<path d="M30.8475 25.7175H32.5688V29.1375H30.8475V25.7175Z" fill="#6FFF00"/>
<path d="M30.8475 6.85126H32.5688V10.2825H30.8475V6.85126Z" fill="#6FFF00"/>
<path d="M29.1375 29.1376H30.8475V30.8588H29.1375V29.1376Z" fill="#6FFF00"/>
<path d="M29.1375 5.14124H30.8475V6.85124H29.1375V5.14124Z" fill="#6FFF00"/>
<path d="M25.7063 30.8588H29.1375V32.5688H25.7063V30.8588Z" fill="#6FFF00"/>
<path d="M25.7063 20.5763H27.4275V22.2863H25.7063V20.5763Z" fill="#6FFF00"/>
<path d="M6.85125 8.57245V22.2862H8.56125V25.7174H10.2825V29.1374H13.7137V27.4274H11.9925V22.2862H10.2825V12.0037H27.4275V20.5762H29.1375V8.57245H6.85125Z" fill="#6FFF00"/>
<path d="M25.7063 3.43121H29.1375V5.14121H25.7063V3.43121Z" fill="#6FFF00"/>
<path d="M23.9963 22.2863H25.7063V23.9963H23.9963V22.2863Z" fill="#6FFF00"/>
<path d="M22.2862 32.5688H25.7062V34.29H22.2862V32.5688Z" fill="#6FFF00"/>
<path d="M22.2862 13.7137H23.9962V20.5762H22.2862V13.7137Z" fill="#6FFF00"/>
<path d="M22.2862 1.71002H25.7062V3.43127H22.2862V1.71002Z" fill="#6FFF00"/>
<path d="M15.4238 23.9963H23.9963V25.7176H15.4238V23.9963Z" fill="#6FFF00"/>
<path d="M13.7138 34.29H22.2863V36H13.7138V34.29Z" fill="#6FFF00"/>
<path d="M17.1338 13.7137H18.855V20.5762H17.1338V13.7137Z" fill="#6FFF00"/>
<path d="M13.7138 0H22.2863V1.71H13.7138V0Z" fill="#6FFF00"/>
<path d="M13.7138 25.7175H15.4238V27.4275H13.7138V25.7175Z" fill="#6FFF00"/>
<path d="M10.2825 32.5688H13.7138V34.29H10.2825V32.5688Z" fill="#6FFF00"/>
<path d="M10.2825 1.71002H13.7138V3.43127H10.2825V1.71002Z" fill="#6FFF00"/>
<path d="M6.85125 30.8588H10.2825V32.5688H6.85125V30.8588Z" fill="#6FFF00"/>
<path d="M6.85125 3.43121H10.2825V5.14121H6.85125V3.43121Z" fill="#6FFF00"/>
<path d="M5.14125 29.1376H6.85125V30.8588H5.14125V29.1376Z" fill="#6FFF00"/>
<path d="M5.14125 5.14124H6.85125V6.85124H5.14125V5.14124Z" fill="#6FFF00"/>
<path d="M3.42 25.7175H5.14125V29.1375H3.42V25.7175Z" fill="#6FFF00"/>
<path d="M3.42 6.85126H5.14125V10.2825H3.42V6.85126Z" fill="#6FFF00"/>
<path d="M1.71 22.2863H3.42V25.7176H1.71V22.2863Z" fill="#6FFF00"/>
<path d="M1.71 10.2825H3.42V13.7137H1.71V10.2825Z" fill="#6FFF00"/>
<path d="M0 13.7137H1.71V22.2862H0V13.7137Z" fill="#6FFF00"/>
</svg>
