<svg width="48" height="44" viewBox="0 0 48 44" fill="none" xmlns="http://www.w3.org/2000/svg">
<path d="M2.28 11.43H45.72V41.145H48V2.29498H45.72V9.14998H2.28V2.29498H0V41.145H2.28V11.43Z" fill="#6FFF00"/>
<path d="M2.28003 41.145H45.72V43.44H2.28003V41.145Z" fill="#6FFF00"/>
<path d="M6.85498 16.005V36.585H41.145V16.005H6.85498ZM20.565 27.435H18.285V29.715H16.005V32.01H13.71V29.715H16.005V27.435H18.285V25.155H16.005V22.86H13.71V20.58H16.005V22.86H18.285V25.155H20.565V27.435ZM34.29 27.435H25.14V25.155H34.29V27.435Z" fill="#6FFF00"/>
<path d="M13.71 4.57501H16.005V6.87001H13.71V4.57501Z" fill="#6FFF00"/>
<path d="M9.1499 4.57501H11.4299V6.87001H9.1499V4.57501Z" fill="#6FFF00"/>
<path d="M4.57495 4.57501H6.85495V6.87001H4.57495V4.57501Z" fill="#6FFF00"/>
<path d="M2.28003 0H45.72V2.295H2.28003V0Z" fill="#6FFF00"/>
</svg>
